 <svg  version="1.0" xmlns="http://www.w3.org/2000/svg"  width="300.000000pt" height="162.000000pt" viewBox="0 0 300.000000 162.000000"  preserveAspectRatio="xMidYMid meet">  <g transform="translate(0.000000,162.000000) scale(0.100000,-0.100000)" fill="#2c9e24" stroke="none"> <path d="M1460 1497 c-8 -7 -48 -84 -87 -172 -198 -439 -223 -496 -223 -500 0 -3 -22 -53 -50 -111 -76 -162 -75 -164 95 -164 113 0 123 2 143 22 11 13 25 35 31 50 9 24 16 28 53 29 155 2 198 5 210 17 19 19 24 15 43 -35 31 -84 32 -84 173 -81 100 2 127 6 135 19 9 15 2 34 -193 469 -26 58 -60 132 -75 165 -15 33 -40 87 -55 120 -85 187 -84 185 -141 185 -24 0 -51 -6 -59 -13z m301 -460 c112 -247 205 -452 206 -456 2 -3 -51 -6 -118 -6 l-121 1 -40 91 -41 92 -170 3 -171 3 -23 -55 c-21 -48 -28 -55 -54 -56 -16 -1 -29 0 -29 1 0 1 16 37 35 79 l36 76 202 0 202 0 40 -95 40 -95 72 0 71 0 -27 58 c-15 31 -97 216 -182 409 -126 289 -157 352 -172 350 -14 -1 -63 -103 -198 -407 -98 -223 -179 -406 -179 -407 0 -2 35 -3 78 -3 l77 0 20 51 20 51 134 -1 c131 0 150 -4 151 -33 0 -5 -58 -8 -128 -8 l-128 0 -22 -52 -22 -53 -125 0 c-69 0 -125 2 -125 6 0 6 382 855 398 886 7 13 22 18 50 18 l40 1 203 -449z m-177 183 c14 -30 77 -170 140 -310 63 -140 114 -255 113 -256 -1 -1 -14 0 -29 3 -24 5 -38 31 -159 305 l-132 299 -74 -173 c-40 -95 -76 -181 -79 -190 -5 -16 5 -18 110 -18 l115 0 -37 80 -36 81 -24 -61 c-20 -50 -28 -60 -48 -60 -13 0 -24 2 -24 5 0 3 21 55 46 116 26 60 44 113 41 116 -4 3 -14 -13 -23 -36 -9 -23 -19 -40 -21 -37 -2 2 7 29 21 59 14 29 26 60 26 68 1 8 8 1 17 -16 27 -50 63 -135 57 -135 -3 0 -16 25 -29 55 -14 30 -29 55 -34 55 -5 0 24 -73 65 -162 41 -88 74 -163 74 -165 0 -1 -85 -3 -190 -3 -104 0 -190 1 -190 3 0 2 13 30 28 63 16 32 68 150 118 261 l89 202 22 -47 c12 -26 33 -72 47 -102z m-143 -204 c-14 -36 -22 -33 -9 5 6 16 12 28 14 26 3 -2 0 -16 -5 -31z m167 -11 c-3 -3 -9 2 -12 12 -6 14 -5 15 5 6 7 -7 10 -15 7 -18z m-63 -67 l15 -38 -67 1 c-38 1 -55 4 -40 6 21 3 31 13 44 44 17 44 24 42 48 -13z m-133 0 c-2 -24 -10 -38 -18 -38 -12 0 -12 6 1 36 8 20 15 39 15 42 0 3 2 3 4 1 2 -2 1 -21 -2 -41z m252 -46 c15 -35 25 -66 22 -69 -3 -3 -8 3 -11 13 -4 10 -17 43 -31 72 -13 29 -24 55 -24 59 0 15 18 -16 44 -75z"/> <path d="M735 403 c-71 -19 -117 -47 -130 -81 -22 -50 -21 -225 1 -243 27 -22 48 1 54 61 l5 53 132 3 c73 1 137 5 143 9 14 8 13 38 -2 53 -8 8 -50 12 -125 12 -77 0 -113 4 -113 11 0 8 -5 8 -15 -1 -12 -10 -15 -10 -15 3 0 33 30 42 145 42 149 0 150 -1 154 -132 2 -95 11 -123 36 -123 12 0 47 33 43 41 -2 2 3 -2 10 -10 6 -8 12 -18 12 -23 0 -14 353 -9 372 6 18 13 15 56 -4 56 -5 0 -7 3 -5 8 3 4 -62 6 -144 4 l-149 -3 -1 68 c0 37 -1 86 -1 108 0 22 -6 50 -14 63 -32 49 -72 10 -68 -64 2 -26 -1 -54 -6 -63 -7 -13 -9 -10 -10 12 -1 80 -74 127 -203 133 -45 1 -91 0 -102 -3z m196 -24 c21 -7 51 -25 66 -41 26 -28 28 -35 31 -135 3 -79 1 -108 -9 -114 -29 -17 -39 12 -39 112 0 75 -4 101 -15 113 -26 25 -95 38 -178 34 -87 -5 -130 -27 -135 -69 l-3 -24 131 3 c134 3 165 -4 153 -34 -4 -11 -33 -14 -144 -14 l-139 0 0 -53 c0 -58 -15 -84 -37 -66 -9 8 -13 37 -13 88 0 129 20 169 97 197 47 16 182 18 234 3z m184 -119 l0 -125 160 -5 c133 -4 160 -7 160 -20 0 -13 -27 -15 -180 -15 l-180 0 -3 134 c-3 148 0 164 25 159 16 -3 18 -17 18 -128z m-55 -47 c0 -21 -3 -24 -9 -14 -5 8 -7 20 -4 28 8 21 13 15 13 -14z m0 -55 c0 -16 -3 -19 -11 -11 -6 6 -8 16 -5 22 11 17 16 13 16 -11z"/> <path d="M1503 390 l-32 -19 0 -125 c0 -179 -12 -170 224 -174 103 -2 195 0 204 4 9 4 19 6 24 6 10 -3 9 3 -4 32 -15 32 -40 36 -226 36 l-154 0 3 23 c3 21 7 22 127 25 127 3 151 10 151 43 0 31 -33 39 -159 39 l-121 0 2 25 c3 28 -11 27 184 25 150 -1 181 4 189 31 14 44 -6 49 -199 49 -162 0 -184 -2 -213 -20z m402 -20 c0 -13 -28 -15 -185 -18 -115 -1 -187 -6 -191 -13 -3 -6 -3 -25 0 -42 l7 -32 134 -5 c111 -4 135 -8 135 -20 0 -12 -24 -16 -135 -20 l-135 -5 -6 -30 c-10 -55 -12 -55 186 -55 148 0 184 -3 188 -14 3 -8 3 -17 0 -20 -4 -3 -91 -6 -195 -6 -237 0 -226 -8 -226 150 0 159 -12 151 231 148 163 -3 192 -5 192 -18z"/> <path d="M1991 392 c-46 -23 -59 -64 -60 -187 0 -102 10 -135 41 -135 31 0 38 23 38 131 0 74 4 110 13 117 16 14 304 15 328 1 16 -8 19 -26 21 -121 3 -93 6 -113 21 -122 12 -8 22 -8 35 0 15 10 17 28 17 136 0 191 -9 198 -265 198 -128 0 -161 -3 -189 -18z m394 -8 c33 -13 45 -59 45 -179 0 -107 -1 -115 -19 -115 -18 0 -20 10 -23 116 -3 101 -6 117 -22 130 -28 20 -324 20 -351 0 -16 -11 -19 -31 -23 -130 -4 -105 -6 -116 -23 -116 -17 0 -19 9 -19 115 0 122 12 169 47 178 28 7 369 8 388 1z"/> <path d="M2162 298 c-15 -15 -16 -181 -2 -209 12 -21 40 -25 58 -7 8 8 12 47 12 108 0 98 -7 120 -40 120 -9 0 -21 -5 -28 -12z m46 -106 c3 -97 2 -102 -18 -102 -19 0 -20 6 -20 98 0 54 3 102 7 106 20 19 28 -8 31 -102z"/> <path d="M2471 284 c0 -11 3 -14 6 -6 3 7 2 16 -1 19 -3 4 -6 -2 -5 -13z"/> <path d="M2473 170 c0 -30 2 -43 4 -28 2 16 2 40 0 56 -2 15 -4 2 -4 -28z"/> </g> </svg> 