 <svg version="1.0" xmlns="http://www.w3.org/2000/svg"  width="900.000000pt" height="486.000000pt" viewBox="0 0 900.000000 486.000000"  preserveAspectRatio="xMidYMid meet">  <g transform="translate(0.000000,486.000000) scale(0.100000,-0.100000)" fill="#000000" stroke="none"> <path d="M4403 4529 c-78 -38 -109 -79 -173 -224 -12 -27 -37 -82 -56 -122 -19 -40 -34 -77 -34 -81 0 -5 -6 -15 -14 -21 -8 -7 -18 -27 -22 -44 -3 -18 -23 -68 -44 -112 -21 -44 -49 -107 -63 -140 -46 -110 -93 -210 -115 -245 -12 -19 -22 -41 -22 -48 0 -14 -26 -76 -70 -167 -16 -33 -38 -82 -48 -110 -11 -27 -45 -103 -76 -168 -31 -64 -56 -120 -56 -123 0 -3 -17 -43 -39 -87 -91 -192 -121 -258 -121 -266 0 -4 -11 -29 -25 -55 -14 -26 -25 -51 -25 -57 0 -5 -28 -69 -63 -142 -35 -72 -80 -172 -101 -222 -21 -49 -48 -108 -61 -130 -30 -53 -69 -197 -61 -227 8 -30 45 -71 92 -103 l37 -25 319 0 c199 0 336 4 363 11 28 7 59 26 89 54 45 44 96 115 96 135 0 6 14 29 31 50 48 60 84 64 469 61 l175 -1 63 31 62 32 23 -21 c13 -12 34 -48 47 -80 12 -31 36 -78 51 -103 16 -25 29 -50 29 -56 0 -20 92 -93 133 -104 29 -9 132 -12 335 -11 330 2 348 5 410 76 55 63 45 122 -68 365 -33 72 -60 132 -60 135 0 4 -36 81 -80 172 -44 91 -80 169 -80 174 0 5 -9 24 -19 42 -11 18 -31 63 -44 99 -14 36 -29 75 -35 85 -5 10 -18 39 -30 64 -11 25 -44 95 -73 155 -28 61 -71 156 -94 212 -23 56 -46 108 -52 115 -5 7 -25 49 -43 93 -40 95 -75 174 -141 313 -27 56 -49 106 -49 110 0 4 -14 36 -32 72 -29 61 -39 81 -86 193 -10 23 -37 80 -59 127 -22 47 -48 106 -58 131 -27 73 -104 162 -164 187 -70 31 -208 31 -268 1z m281 -121 c10 -24 24 -56 31 -73 8 -16 16 -37 19 -45 3 -8 10 -22 14 -30 5 -8 16 -31 24 -50 9 -19 29 -64 46 -100 58 -128 94 -205 107 -235 7 -16 27 -61 45 -100 17 -38 37 -83 45 -100 15 -34 62 -139 107 -235 16 -36 36 -78 43 -95 7 -16 27 -61 45 -100 38 -84 56 -125 64 -145 3 -8 10 -22 14 -30 5 -8 16 -32 26 -52 9 -21 22 -53 30 -70 8 -18 17 -40 20 -48 3 -8 10 -22 14 -30 5 -8 16 -31 24 -50 9 -19 30 -66 48 -105 17 -38 37 -83 45 -100 7 -16 27 -61 45 -100 35 -76 53 -117 95 -210 15 -33 33 -73 40 -90 8 -16 16 -37 19 -45 3 -8 10 -22 14 -30 5 -8 16 -31 24 -50 71 -162 150 -324 160 -328 4 -2 8 -17 8 -34 0 -27 -3 -30 -22 -24 -45 14 -237 17 -458 8 -218 -8 -226 -8 -247 11 -13 11 -23 29 -23 40 0 10 -6 31 -14 45 -7 15 -22 45 -31 67 -10 22 -22 47 -27 55 -4 8 -11 22 -14 30 -7 19 -28 68 -81 188 -9 20 -22 49 -30 64 -7 14 -13 33 -13 41 0 8 -7 18 -16 21 -9 3 -243 6 -520 6 -472 0 -505 -1 -510 -17 -5 -16 -44 -113 -79 -198 -6 -16 -21 -48 -31 -70 l-19 -40 -87 -3 c-82 -3 -88 -1 -88 17 0 11 4 22 9 26 9 5 39 64 55 105 3 8 10 22 14 30 5 8 16 32 26 53 38 87 47 109 63 144 8 21 21 49 27 63 l12 25 603 3 c438 1 608 -1 617 -9 8 -6 14 -20 14 -31 0 -11 6 -32 14 -46 8 -15 28 -58 46 -97 17 -38 45 -99 62 -135 16 -36 37 -81 45 -100 8 -19 22 -47 29 -62 8 -14 14 -33 14 -41 0 -9 7 -23 16 -31 23 -24 414 -24 414 -1 0 9 -16 48 -36 88 -20 39 -42 86 -50 102 -7 17 -27 62 -44 100 -17 39 -38 85 -46 103 -8 17 -20 47 -28 65 -8 17 -29 64 -46 102 -17 39 -38 85 -45 103 -25 57 -42 95 -75 167 -17 39 -38 85 -45 103 -8 18 -21 47 -28 65 -8 17 -23 52 -35 77 -21 47 -64 144 -86 195 -7 17 -22 50 -34 75 -21 48 -64 144 -87 198 -33 75 -44 100 -75 167 -17 39 -38 85 -45 103 -8 18 -21 48 -30 67 -8 19 -21 50 -29 68 -8 17 -29 64 -46 102 -17 39 -38 84 -45 100 -7 17 -25 57 -40 90 -51 114 -62 140 -71 170 -9 28 -14 30 -60 33 l-51 3 -23 -53 c-20 -48 -41 -95 -88 -198 -8 -19 -21 -48 -28 -65 -14 -33 -55 -125 -86 -195 -11 -25 -26 -58 -33 -75 -7 -16 -20 -46 -28 -65 -9 -19 -30 -66 -47 -105 -17 -38 -38 -85 -46 -102 -8 -18 -21 -49 -29 -68 -9 -19 -22 -49 -30 -67 -7 -18 -28 -64 -45 -103 -42 -91 -60 -133 -77 -172 -27 -64 -42 -99 -73 -168 -42 -93 -60 -134 -76 -170 -7 -16 -27 -61 -44 -100 -17 -38 -38 -85 -45 -103 -15 -34 -35 -79 -59 -135 -8 -17 -17 -39 -20 -47 -3 -8 -10 -22 -14 -30 -5 -8 -16 -32 -26 -52 -36 -84 -47 -109 -60 -140 -8 -18 -35 -76 -60 -129 -25 -52 -46 -101 -46 -107 0 -16 432 -17 461 -2 10 6 19 20 19 31 0 12 6 33 14 47 8 15 22 47 31 72 9 25 23 57 31 72 8 14 14 35 14 46 0 12 4 24 10 27 15 10 811 8 820 -1 16 -17 62 -115 56 -121 -3 -3 -182 -6 -398 -7 -385 -1 -393 -1 -396 -21 -2 -11 -10 -36 -19 -55 -9 -19 -23 -51 -31 -70 -8 -19 -21 -47 -29 -62 -7 -14 -13 -35 -13 -45 0 -11 -8 -28 -19 -37 -17 -15 -55 -17 -372 -20 -195 -1 -363 -4 -374 -7 -35 -8 -28 30 25 139 51 104 73 151 84 182 3 8 10 22 14 30 5 8 16 32 26 53 9 20 22 52 30 70 8 17 29 64 46 102 18 39 38 84 45 100 8 17 28 62 45 100 18 39 38 84 45 100 8 17 28 62 45 100 18 39 38 84 45 100 8 17 28 62 45 100 18 39 38 84 45 100 8 17 28 62 45 100 34 74 51 113 74 167 8 18 28 62 44 98 45 96 92 201 107 235 8 17 28 62 45 100 18 39 38 84 45 100 7 17 20 46 28 65 9 19 18 42 21 50 3 8 10 22 15 30 8 14 25 51 55 122 16 37 60 132 105 228 17 36 31 68 31 71 0 4 9 27 20 53 l21 46 128 0 127 0 18 -42z m-121 -350 c10 -24 24 -56 32 -71 8 -16 15 -37 15 -47 0 -9 7 -23 15 -30 8 -7 15 -19 15 -27 0 -13 15 -48 41 -93 5 -8 12 -22 15 -30 3 -8 12 -31 21 -50 8 -19 21 -48 27 -65 16 -37 72 -160 92 -198 8 -16 14 -34 14 -42 0 -7 7 -18 15 -25 8 -7 15 -23 15 -35 0 -12 7 -28 15 -35 8 -7 15 -19 15 -27 0 -13 15 -48 41 -93 5 -8 12 -22 15 -30 9 -24 35 -83 50 -112 8 -14 14 -33 14 -41 0 -8 7 -20 15 -27 8 -7 15 -23 15 -35 0 -12 7 -28 15 -35 8 -7 15 -19 15 -27 0 -8 6 -27 14 -41 8 -15 28 -58 46 -97 17 -38 38 -83 46 -98 8 -16 14 -34 14 -42 0 -7 7 -18 15 -25 8 -7 15 -20 15 -28 0 -9 13 -43 30 -77 16 -33 32 -67 34 -75 3 -8 10 -22 14 -30 5 -8 16 -32 25 -53 9 -20 23 -52 31 -70 8 -17 17 -39 20 -47 3 -8 10 -22 14 -30 5 -8 17 -33 27 -55 10 -22 29 -61 42 -87 13 -27 21 -52 18 -58 -3 -5 -39 -10 -80 -10 l-73 0 -21 43 c-12 24 -21 48 -21 53 0 5 -13 36 -29 69 -16 33 -32 67 -35 75 -3 8 -10 22 -14 30 -27 48 -42 84 -42 100 0 9 -7 23 -15 30 -8 7 -15 17 -15 24 0 6 -14 40 -31 76 -17 36 -36 79 -43 95 -7 17 -20 46 -28 65 -29 65 -56 125 -82 185 -15 33 -33 73 -41 88 -8 16 -15 34 -15 42 0 7 -7 18 -15 25 -8 7 -15 21 -15 31 0 10 -14 47 -31 81 -30 60 -42 89 -73 161 -7 17 -20 48 -29 67 -9 19 -18 45 -22 58 -3 12 -11 22 -16 22 -5 0 -9 11 -9 24 0 13 -7 29 -15 36 -8 7 -15 18 -15 25 0 7 -13 40 -30 73 -16 34 -30 66 -30 72 0 7 -6 24 -14 38 -8 15 -23 48 -33 74 -18 49 -43 64 -43 28 0 -20 -18 -74 -47 -140 -9 -19 -22 -50 -29 -67 -39 -94 -75 -174 -91 -205 -7 -14 -13 -35 -13 -46 0 -11 -7 -25 -15 -32 -8 -7 -15 -20 -15 -29 0 -9 -7 -25 -15 -35 -8 -11 -15 -28 -15 -37 0 -10 -6 -30 -14 -46 -14 -27 -32 -68 -60 -135 -8 -18 -22 -51 -32 -73 -9 -22 -24 -56 -32 -75 -8 -19 -21 -47 -29 -62 -7 -14 -13 -33 -13 -41 0 -8 -7 -20 -16 -27 -8 -8 -14 -25 -12 -39 2 -20 8 -25 23 -22 45 9 549 11 595 3 28 -5 53 -6 55 -2 4 7 -13 53 -34 90 -4 8 -22 44 -38 80 -17 36 -44 95 -62 132 -17 37 -31 72 -31 78 0 6 -9 29 -20 51 -22 42 -40 44 -40 4 0 -13 -6 -39 -14 -57 -8 -18 -21 -49 -30 -70 -9 -20 -16 -41 -16 -46 0 -6 -7 -23 -15 -39 -8 -15 -22 -47 -32 -70 -17 -43 -17 -43 -67 -43 -28 0 -61 -3 -73 -6 -33 -9 -39 18 -14 66 12 22 21 49 21 59 0 10 7 24 15 31 8 7 15 20 15 30 0 10 7 23 15 30 8 7 15 20 15 30 0 10 14 51 31 91 45 106 55 129 73 171 9 21 24 55 33 75 9 21 20 46 24 55 5 10 9 26 9 37 0 62 31 67 54 9 23 -56 42 -101 60 -141 8 -17 17 -39 20 -47 3 -8 10 -22 14 -30 9 -15 35 -71 46 -100 3 -8 10 -22 14 -30 5 -8 16 -31 24 -50 8 -19 30 -66 48 -105 18 -38 38 -83 45 -100 6 -16 26 -59 42 -95 17 -36 41 -86 53 -112 12 -27 26 -50 31 -54 5 -3 9 -15 9 -27 l0 -22 -566 2 c-312 1 -569 4 -571 7 -3 3 8 31 25 63 29 55 54 111 66 143 3 8 10 22 14 30 9 14 23 47 56 123 8 17 21 48 29 67 9 19 18 42 21 50 3 8 10 22 15 30 5 8 16 32 25 52 30 68 45 103 50 118 3 8 10 22 14 30 9 14 23 47 56 123 36 83 50 113 58 127 4 8 11 22 14 30 3 8 12 28 20 43 7 16 14 34 14 42 0 7 7 18 15 25 8 7 15 20 15 29 0 8 13 43 29 76 51 107 91 195 91 203 0 4 9 26 20 47 12 22 26 59 32 83 5 23 16 42 22 42 7 0 20 -19 29 -42z m3 -1160 c3 -12 19 -39 35 -61 19 -27 29 -52 29 -76 0 -33 -4 -38 -32 -48 -19 -6 -61 -8 -97 -4 -56 5 -62 8 -48 20 10 8 17 28 17 50 0 27 7 44 24 61 l25 23 7 -27 c3 -14 10 -26 15 -26 13 0 11 37 -3 59 -12 19 -5 51 11 51 5 0 13 -10 17 -22z"/> <path d="M4550 2765 c7 -8 16 -12 21 -9 13 8 1 24 -18 24 -13 0 -13 -3 -3 -15z"/> <path d="M2252 1217 c-15 -5 -47 -10 -71 -12 -24 -2 -58 -10 -75 -18 -59 -28 -101 -40 -133 -39 -23 0 -30 -3 -26 -14 3 -8 -6 -18 -24 -26 -48 -21 -112 -78 -106 -94 3 -9 -3 -28 -15 -43 -49 -67 -55 -107 -55 -407 -1 -278 -1 -281 22 -310 49 -62 117 -72 170 -25 40 36 51 74 51 186 0 52 6 100 13 113 15 30 39 32 432 36 165 1 309 6 320 11 57 24 84 56 96 113 7 31 16 64 20 72 15 29 22 -19 10 -61 -7 -22 -8 -45 -4 -52 4 -6 8 -55 9 -107 1 -263 0 -253 44 -299 59 -61 105 -56 181 16 33 32 38 33 44 17 3 -11 21 -31 40 -47 49 -41 127 -46 621 -44 395 2 434 4 451 20 11 9 25 17 31 17 6 0 16 9 22 20 6 11 22 23 35 26 31 8 33 37 5 79 -11 17 -20 38 -20 48 0 9 -8 17 -17 17 -10 0 -36 7 -58 15 -32 11 -116 14 -426 15 -297 0 -389 3 -396 12 -28 36 -36 121 -38 385 l-1 273 -31 42 c-37 51 -65 63 -124 54 -38 -6 -48 -13 -74 -54 -25 -39 -29 -55 -27 -99 3 -43 0 -53 -17 -62 -11 -6 -22 -11 -25 -11 -10 0 -65 62 -71 80 -4 11 -12 21 -18 22 -7 0 -17 2 -22 2 -6 1 -26 14 -46 29 -20 15 -41 27 -47 27 -6 0 -23 6 -39 14 -48 24 -96 38 -158 48 -33 6 -68 14 -78 19 -21 11 -335 8 -375 -4z m487 -73 c85 -25 131 -45 188 -82 53 -34 123 -118 123 -150 1 -9 7 -28 15 -42 11 -20 14 -82 15 -312 l0 -288 -36 -18 c-33 -17 -40 -17 -65 -5 -15 7 -30 21 -34 31 -3 9 -7 145 -8 302 l-2 285 -25 35 c-37 50 -59 67 -120 88 -122 43 -300 60 -460 43 -136 -14 -223 -30 -235 -42 -5 -5 -17 -9 -28 -9 -22 0 -80 -52 -108 -97 -15 -23 -19 -46 -17 -80 3 -42 6 -47 23 -44 11 3 189 6 395 8 406 4 408 4 435 -50 14 -27 13 -33 -6 -63 -11 -19 -28 -34 -37 -34 -9 0 -196 -1 -416 -3 l-399 -2 2 -165 c2 -179 3 -175 -54 -206 -23 -12 -57 1 -80 32 -22 30 -21 463 2 564 42 188 199 298 458 321 129 11 410 1 474 -17z m591 4 c21 -22 21 -30 19 -393 l-1 -370 460 -2 c450 -1 461 -2 481 -22 36 -36 36 -65 2 -94 l-31 -26 -509 2 c-485 2 -510 3 -530 21 -21 19 -21 25 -21 438 0 475 -1 468 71 468 27 0 44 -7 59 -22z m-667 -197 c16 -6 42 -11 59 -11 36 0 98 -28 105 -47 3 -8 -2 -22 -11 -32 -16 -18 -16 -20 13 -32 31 -14 43 -51 20 -64 -13 -9 -66 13 -72 30 -3 6 -27 15 -54 18 -46 6 -333 8 -513 3 -47 -1 -91 0 -97 2 -7 2 -13 17 -13 32 0 16 -4 32 -10 35 -5 3 -10 14 -10 24 0 13 9 18 33 19 19 1 46 6 61 12 15 5 44 10 64 10 20 0 44 5 52 10 19 13 335 5 373 -9z m467 -10 c0 -5 3 -18 6 -28 5 -16 4 -16 -10 1 -18 23 -20 36 -6 36 6 0 10 -4 10 -9z"/> <path d="M4629 1219 c-101 -13 -156 -42 -206 -107 -38 -50 -49 -124 -39 -270 4 -53 7 -115 6 -137 -5 -244 -2 -352 11 -375 33 -59 85 -96 173 -124 42 -14 125 -16 564 -16 504 0 515 0 548 21 19 11 38 28 43 37 7 13 12 14 23 4 10 -8 18 -8 25 -1 12 12 53 -4 53 -20 0 -11 47 -31 75 -31 38 0 68 18 96 59 l26 38 5 294 c5 316 8 334 56 345 15 3 36 9 47 14 34 15 93 21 190 21 110 1 128 -4 144 -34 10 -18 8 -30 -11 -67 -21 -43 -22 -57 -23 -305 l-1 -260 33 -47 c37 -51 49 -58 101 -58 29 0 43 8 79 45 l43 45 0 259 c0 344 -10 372 -131 386 -73 8 -113 24 -64 25 17 1 96 3 178 6 173 7 315 -8 335 -34 7 -9 25 -17 40 -17 23 0 27 -5 35 -45 4 -25 9 -160 11 -300 2 -154 8 -269 15 -291 16 -50 43 -71 98 -76 39 -4 53 -1 76 17 57 45 59 57 59 364 0 328 -8 390 -60 489 -35 66 -43 74 -98 101 -110 53 -180 58 -669 54 l-440 -5 -80 -27 c-50 -17 -89 -38 -105 -55 -14 -15 -34 -32 -44 -38 -11 -6 -19 -24 -21 -47 -2 -21 -8 -43 -13 -49 -21 -27 -33 -145 -37 -362 -4 -270 -10 -302 -46 -259 -40 48 -43 48 -576 54 -276 3 -505 8 -509 12 -4 5 0 16 9 26 21 23 21 31 2 52 -35 39 -4 43 358 48 272 3 345 7 358 18 8 8 19 14 24 14 5 0 22 12 37 27 22 21 28 36 28 70 0 35 -5 48 -31 70 -54 49 -74 51 -381 52 -183 1 -305 5 -338 13 -47 11 -51 14 -47 37 3 13 0 33 -6 43 -9 13 -8 21 1 30 9 9 12 7 12 -10 0 -12 5 -22 11 -22 6 0 9 9 6 19 -3 12 2 23 12 28 9 4 216 8 461 9 282 0 460 4 487 11 26 7 52 23 69 42 29 35 44 33 44 -7 0 -20 3 -23 12 -14 9 9 9 18 0 37 -7 14 -12 35 -12 47 0 30 -50 104 -80 120 -30 15 -943 22 -1051 7z m1075 -79 l29 -31 -26 -36 -26 -36 -530 2 -530 2 -26 -25 c-23 -23 -25 -32 -25 -111 0 -93 12 -118 66 -131 15 -4 188 -5 386 -2 l358 6 25 -30 c30 -36 31 -45 2 -80 l-22 -27 -393 -3 c-462 -3 -422 9 -422 -130 0 -141 -57 -129 576 -128 295 1 537 0 538 -2 38 -60 47 -88 26 -88 -5 0 -10 -7 -10 -15 0 -9 -12 -20 -26 -25 -36 -14 -925 -13 -1038 1 -167 20 -206 70 -206 263 0 95 3 117 22 152 l21 41 -21 45 c-19 38 -22 62 -22 161 0 64 4 118 9 121 5 3 12 17 15 31 12 47 72 91 132 98 21 2 275 4 564 5 l525 2 29 -30z m1433 1 c56 -30 113 -87 113 -113 0 -7 7 -26 15 -42 12 -22 16 -94 22 -350 3 -177 3 -333 0 -347 -3 -13 -19 -31 -34 -40 -24 -14 -32 -14 -60 -3 -18 8 -34 15 -35 17 -1 1 -5 141 -9 312 -3 171 -10 326 -14 345 -9 43 -38 76 -85 98 -31 14 -89 16 -475 17 -473 0 -511 -3 -556 -51 -34 -36 -40 -94 -48 -419 l-6 -299 -26 -15 c-29 -16 -69 -10 -94 15 -14 15 -15 50 -10 350 5 261 9 340 21 361 7 16 14 34 14 41 0 17 29 63 54 85 32 27 87 51 136 58 25 4 268 6 540 5 492 -2 495 -3 537 -25z m-524 -268 c15 -15 17 -43 17 -308 0 -322 2 -311 -63 -322 -27 -4 -39 -1 -56 16 -20 20 -21 29 -21 310 l0 290 27 21 c30 23 65 21 96 -7z"/> </g> </svg> 